<svg id="Layer_2" data-name="Layer 2" xmlns="http://www.w3.org/2000/svg" width="110mm" height="230mm" viewBox="0 0 311.81 651.97"><defs><style>.cls-1{fill:#f7fa86;}</style></defs><path class="cls-1" d="M10.05,295.56c0,.16,0,.33,0,.49,0-.17,0-.33,0-.49Z"/><path class="cls-1" d="M302.46,327.08c-.13-1.84-.29-3.69-.44-5.53h0C302.2,323.4,302.34,325.25,302.46,327.08Z"/><path class="cls-1" d="M30.74,209.12c-.21.43-.41.86-.61,1.3h0Z"/><path class="cls-1" d="M48.81,178.85l-.51,1.05,0-.22c.05-.34.11-.68.17-1Z"/><path class="cls-1" d="M87.9,190.5l0,.05-.87.17Z"/><path class="cls-1" d="M262.37,186.23v.1l-.09-.1Z"/><path class="cls-1" d="M231.45,102.54c-2.71,5-9.92,5.68-12.1,5.78-.78-.85-1.55-1.66-2.33-2.42,3.84-1.18,10.76-3.78,13.29-7.87a6.3,6.3,0,0,0,.86-4.91l-2.92.7a3.36,3.36,0,0,1-.49,2.63c-2.19,3.54-9.73,6.13-13.29,7.06-1-.86-2-1.65-2.95-2.37A34.9,34.9,0,0,0,227,88.29l-2.56-1.57a32.33,32.33,0,0,1-16,12.36c-5.12-3-10.17-4.19-15.11-3.43-13.94,2.15-21.55,18.68-21.87,19.38l2.73,1.23a42.31,42.31,0,0,1,9-12.23,10.18,10.18,0,0,0-1,4.32c0,6.25,5.71,11.32,12.74,11.32s12.74-5.07,12.74-11.32a10.76,10.76,0,0,0-4.16-8.37c4.54,1.89,9.23,5.51,14,10.85l.44.49h.65c.46,0,11.35.09,15.41-7.35Zm-33.54,5.81a2.92,2.92,0,1,1,2.92-2.92A2.92,2.92,0,0,1,197.91,108.35Z"/><path class="cls-1" d="M111,88.73l-1.76-2.43c22-16,34.39.15,34.51.32l-2.41,1.79C140.9,87.83,130.58,74.53,111,88.73Z"/><path class="cls-1" d="M173.94,90l-2.26-2c.22-.25,22.3-24.88,46.43-5.1l-1.9,2.32c-9.16-7.5-19-9-29.26-4.52A41.6,41.6,0,0,0,173.94,90Z"/><path class="cls-1" d="M141.18,116.28l2.71-1.27c-.32-.7-8.18-17.14-20.55-17.74-5.12-.25-10.14,2.24-15,7.42-6.54-1-6.84-5.62-6.86-6h0l-1,0h-2c0,2.41,1.72,6.88,7.61,8.51q-1,1.29-2.07,2.76c-2.76,0-4.79-.65-6-1.88a4.37,4.37,0,0,1-1.33-3l-3-.11a7.38,7.38,0,0,0,2.17,5.14,10.07,10.07,0,0,0,6.27,2.69c-.27.43-.55.87-.82,1.32-1.91.2-7.55.46-11.54-2.69l-1.86,2.36c3.65,2.87,8.23,3.44,11.28,3.44a19.75,19.75,0,0,0,3.29-.24l.68-.11.35-.6a59.11,59.11,0,0,1,6-8.49,10.17,10.17,0,0,0-.55,3.31c0,6.25,5.71,11.32,12.74,11.32s12.74-5.07,12.74-11.32a10.84,10.84,0,0,0-4.61-8.72C136.68,106.89,141.13,116.16,141.18,116.28Zm-16.33-2.82a3.22,3.22,0,1,1,3.22-3.22A3.22,3.22,0,0,1,124.85,113.46Z"/><path class="cls-1" d="M303.92,364.33c0-11-.42-22.21-1.19-33.37-.09-1.29-.17-2.58-.27-3.88-.13-1.84-.29-3.69-.44-5.53-3.37-40-10.78-78.19-18.12-100.83-2.16-6.67-1.6-37.57-.85-45,.68-6.78,1.22-13,1.64-18.55l2.44-.3-2.29-1.74c2.66-36.46.32-47.88,0-49.28-2.39-24-16.95-47.91-40-65.63C220.44,21.37,188.71,11,155.51,11,109.71,11,68.93,31.7,46.43,66.35,35.26,83.56,28,108.94,27.53,132.59c-.14,6.83.32,15.73,1.25,33.5.73,13.85,1.64,27.79,2.72,41.46h0l-.76,1.56c-.21.43-.41.86-.61,1.3-11.92,25.41-17.5,54.33-20.08,85.14,0,.16,0,.33,0,.49a3.87,3.87,0,0,0,0,.48C8.2,318.38,7.9,341.18,7.9,364.33c0,40.93,10.88,91,18.09,124.18,3.25,15,5.83,26.88,6.47,33.39C31.4,525.49,22,557.77,22,570.6c0,21.87,14,40.11,40.58,52.76C86.39,634.7,119.39,641,155.51,641c36.34,0,69.45-6.07,93.25-17.1,26.78-12.41,40.93-30.5,40.93-52.3,0-12.07-4.61-30.34-13.44-42.34C293.58,479.28,303.92,417.72,303.92,364.33Zm-4.46-37.18c0,.16,0,.31,0,.47,7,101-19.79,169.42-77.58,197.94C162.28,555,100.41,524,97.81,522.68c-25.79-13.2-47.24-45.76-62.18-85.3,2.82,5,5,6.36,6.87,7.47s3.2,1.93,5,7.11c5.58,16.09,11.41,24.61,17.33,25.34a7.32,7.32,0,0,0,6.4-2.71,1.72,1.72,0,0,1,.44.21c3.55,2.35,7,16.37,8.4,24.66l1.07,6.47L88,482.77c17.35-19.49,5.73-40.59,1.31-47.17l5.93-.89c2.78,4.75,5.13,8.08,5.44,8.52l.15.18c.18.18,17.68,18,26.65,31.34,4.08,6.05,15.58,8.76,27.82,8.76a84.14,84.14,0,0,0,16.78-1.68c11.56-2.39,19.13-6.8,21.14-12.22a24.22,24.22,0,0,0,2.94.18,28.3,28.3,0,0,0,10.38-2c.36-.14.71-.29,1.06-.45-5.44,6.7-12.33,16.09-14.1,22.53-2.68,9.77,7.76,17,11.51,19.24-1.53,3-6,10.85-12.09,12.2-.76.17-2.33.52-2.15,2,.16,1.28,1.4,1.4,2.06,1.4H193c6.88-.2,42.22-7.6,44.18-37.87a34.56,34.56,0,0,0-1.55-10.54c2.9,4.94,6.9,7.69,11.88,8.09.49,0,1,.06,1.43.06a12.92,12.92,0,0,0,9.53-3.84c6.52-6.58,6.53-19.67,6.34-24a6.64,6.64,0,0,0,2.5.5h.32c3.17-.16,6.48-2.69,10.12-7.73,3.21-4.44,4.06-8.15,2.51-11-1.64-3-5.57-4.27-8.89-4.76,3.36-2.28,7.45-6,8.2-11.12.72-4.92-1.83-9.94-7.58-14.9a18.81,18.81,0,0,0,.86-3.7c1.55-11.32,3.52-15.24,4.57-16.57-.25,1.34-.31,3.18,1.15,4.08a2.59,2.59,0,0,0,1.43.37c3.45,0,9.32-4.69,14-9l.31-.29.12-.42c.57-2.08,5.37-20.52-1.36-25.27-2.74-1.94-6.6-1.37-11.75,1.73-.19-8-.53-17-.93-26.28a1.06,1.06,0,0,0,0-.15c-1.36-31.37-3.52-65.29-3.85-70.34a23.59,23.59,0,0,0,2.27-5.57l-2.89-.82c-.74,2.62-2,5.26-2.72,5.91-.75-.85-3-5.54-3.78-31.43a4.61,4.61,0,0,0,1.38.2c2.42,0,5-1.76,7.75-5.27l-2.37-1.84c-1.7,2.19-4.13,4.65-6,4-3-1-7.63-12.49-7.76-38.84,1.67.36,3.38.73,5.11,1.12q5.73,1.31,11.93,2.87c-.15,11.45.15,25,1.64,29.57C288.66,245.12,296.34,285.44,299.46,327.15ZM31.74,426.52a375.75,375.75,0,0,1-18.45-93q5.43,13.63,12.46,18.95c4.62,27,9,30.46,12.3,30.46,7,0,11.51-21.2,13.1-30.06a8.51,8.51,0,0,0,5.36,1.74c17.38,0,39.58-28,47.85-48.06,2.82-6.84,5.3-15.86,1.12-20C95.93,277,90.31,245,90.26,244.72l-2.05-11.81-.93,12c-1,13.44-3.21,28.72-5.07,32.05a12.88,12.88,0,0,1-.91-2.41c-1.89-6.37-4.87-10.28-8.85-11.61-5.35-1.78-10.31,1.84-10.52,2l-.38.28-.15.44c-.06.17-5.92,17.4-10.34,36.3-.21.89-.41,1.77-.61,2.64.32-8,2.36-22.44,6.39-40.68a28.51,28.51,0,0,0,9.84-9c5.2-7.76,6.26-18,3.18-30.56,6.12-5.08,12-13.92,11.47-29.08,22.08-5.57,46.77-10.38,62.19-9,11.16,1,20.22-.33,30.71-1.89,18.46-2.74,40.86-6.06,85.15,3,0,3,.19,10.82,1,18.84,1.16,10.91,3.11,18,5.91,21.35,0,0,0,0,0,0s0,0,0,0c.94,35.95,4.54,36.41,6.48,36.65a1.62,1.62,0,0,0,.31,0,2.42,2.42,0,0,0,.54-.06c1,15.28,2.17,35.38,3.12,54.86a14.57,14.57,0,0,0-4.83-5.31c-3.66-2.3-8.2-2.34-13.48-.1-17.38,7.35-23.14,5.12-23.16,5.12l-8.61-4.14h0a89.71,89.71,0,0,0-13-13.13c-6.69-5.62-16.84-12.76-27.61-10-5.89,1.52-9.65,5.44-12.62,9-7.58-9.67-15.67-14.12-24.06-13.25-8.07.83-16.08,6.49-23.83,16.81a93.59,93.59,0,0,0-8.86,14.48c-3.86,1.4-24.06,9.36-31.43,25.29a28.42,28.42,0,0,0-2.06,17.87H52.2l34.19,38.66h0a13.17,13.17,0,0,0-1.11,4.16L50.83,368.76l-1,1.78C49,372.16,29.82,407,31.74,426.52Zm17.48-75.73-.74-.13a132,132,0,0,1-4.86,19.91c-1.9,5.55-3.92,9.33-5.57,9.33-.74,0-4.53-1.27-8.9-25.45A14.34,14.34,0,0,0,35,355.72c6.05,0,11-3.88,13.42-6.24A12.62,12.62,0,0,0,49.22,350.79ZM54,302.61c4-17,9.14-32.66,10.11-35.56,1-.66,4.23-2.37,7.42-1.31,3,1,5.33,4.23,6.92,9.61.77,2.59,1.84,5.2,4,5,1.14-.12,4.36-.45,7-25.2,2.5,10.61,7.24,26.81,14,33.52,2.28,2.25,1.61,8.51-1.78,16.74-4.11,10-11.71,21.67-19.85,30.53-9.27,10.1-18.23,15.67-25.23,15.67a5.53,5.53,0,0,1-4.79-2.45C48.75,345,46.73,333.53,54,302.61ZM67.41,187.19c-3.62-3.86-4.06-10.45-1.32-19.6l35.63,2.55L87.9,190.5l0,.05-.87.17h0C83.14,191.42,72.6,192.72,67.41,187.19Zm7,6.7-.81.22-.28-.45C73.68,193.75,74.05,193.83,74.41,193.89ZM44.89,180,34.1,202.22c-.74-9.79-1.4-19.7-2-29.61ZM32,169c0-.66-.07-1.31-.11-2,7.72-2.61,14.43-4.66,20.22-6.27-2.77,2.73-4.86,8.12-6.33,16.27Zm12.84,18.11c.16,5.53,1.82,9.35,4.94,11.4a10,10,0,0,0,3.37,1.38c-7.57,2.27-13.61,4.21-17.16,5.38ZM51.38,196c-3.35-2.2-4.39-7.62-3.09-16.12h0l0-.22c.05-.34.11-.68.17-1,2.31-13.76,5.8-16.53,7.7-16.94,2.73-.59,5.8,2.69,7.16,4.54-3.23,10.49-2.61,18.22,1.86,23a14.66,14.66,0,0,0,5,3.42C65.41,195.32,56.18,199.19,51.38,196ZM147.9,35.8c-1.07,8.44-43.26,40.3-73.09,60.92,7.23-38.47,46-66.1,80.05-66.1,22.19,0,43.13,7.3,59,20.55a69.76,69.76,0,0,1,21.65,31c-31.46-6.88-85-48.61-85.59-49l-2,2.16A.68.68,0,0,1,147.9,35.8Zm2.66,1.61c11.39,8.67,57.51,42.74,85.94,48A65.12,65.12,0,0,1,239,103.2c0,46.39-44.33,79.51-84.12,80.22h-1.35a82.93,82.93,0,0,1-46.95-15l.6-.89-2.06-.15a76.94,76.94,0,0,1-18.46-19c-9.09-13.44-13.45-27.35-13-41.34q.12-3.18.51-6.27C83.63,94.3,145.37,51.48,150.56,37.41ZM262.83,166.29a10.68,10.68,0,0,1-.45,4.74.08.08,0,0,0,0,0c-.83,1.16-1.68,2.39-2.53,3.72-2.79,2.42-7.35,3.47-13.61,3.16-15.28-.78-18.28-7.64-18.85-10.56a51.5,51.5,0,0,0,32-17.23l3.47.63V166Zm18.79-8.44c-.41,5.32-.92,11.15-1.56,17.53-.23,2.33-.48,7.49-.6,13.6q-5.86-1.47-11.3-2.7l-.09,0c-5.93-1.47-5.82-7.92-5.66-9.77.21-.21.41-.42.6-.64a11.14,11.14,0,0,0,2-3.36h0s0,0,0,0h0C272.35,162.47,278.64,159,281.62,157.85Zm-15.82,8v-14.5a70.8,70.8,0,0,1,13.83,4c-3.12,1.38-8.06,4.44-13.75,11.16C265.85,166.26,265.82,166,265.8,165.89Zm-3.43,20.34v.1l-.09-.1Zm-36.69-21.72-1.38.05-.07,1.39c0,.13-.37,13.86,21.84,15q1.14.06,2.22.06,6.81,0,11.09-2.3a13.33,13.33,0,0,0,1.81,6.06c-36.17-7.56-58.08-7-75-5,16.61-6.77,31.84-18.39,42.17-33.48,3.28.28,15.36,1.4,27.43,3.32C242.14,163.79,225.85,164.51,225.68,164.51ZM131,183.26c-11.56.72-25.29,3.18-38.78,6.24l12.63-18.61A87.48,87.48,0,0,0,131,183.26Zm-43.06-28A80.2,80.2,0,0,0,99.67,167l-33.84-2.43h0c-1-1.37-3.64-4.56-6.93-5.58a150.91,150.91,0,0,1,17.93-3.53C83.75,154.59,87,155,87.93,155.21ZM207.61,507.14c-.13-.07-13.79-7.21-11.24-16.49,2.77-10.09,20.21-29.25,20.38-29.44h0a44.28,44.28,0,0,0,6.71-8c3.1,6.57,11.33,24.89,10.77,33.48a32,32,0,0,1-12,23.21c-7.15,6-15.74,9.07-21.84,10.58a36.46,36.46,0,0,0,7.89-11.37l.55-1.28Zm-19.7-64.44c-1.1-1.62-2.34-3.44-3.74-5.58a62.16,62.16,0,0,0,11.06-11.5,90.07,90.07,0,0,0,6.19-9.4c3,1.81,9.16,3.26,15.27,3.26a28.45,28.45,0,0,0,8.67-1.21,16.64,16.64,0,0,0,6-3.39c.62,1.84,1.57,7.73-3.47,22.15-3.78,10.8-8.56,17.74-13.37,22.18q-.16.17-.33.3l0,0c-8.5,7.62-17.05,7.54-20.35,7.15C196,454.57,194.12,451.85,187.91,442.7Zm62.9-13.53a12.78,12.78,0,0,0,1.52,1.87l-10.13-1.63,1.75,2.8a168.46,168.46,0,0,0,9.74,14.07c-5-1.85-12.06-3-21.94-1.91l-1.25.14-.08,1.25a82,82,0,0,0,1.07,18.33c-2.57-6.47-5.22-12-6.18-14A71.53,71.53,0,0,0,230.77,438c2.77-7.93,3.83-13.53,4.07-17.44,1.6,0,3.31-1.13,4.93-3.22a28.88,28.88,0,0,0,4.74-11.06,61,61,0,0,0,6.35,4.07C247.78,418.27,247.77,424.59,250.81,429.17Zm-85.52-17.6a8.28,8.28,0,0,1-7.52.67l-36.33-14.91c22-10.27,37.39-14,39.73-11.6.66,4.27,1.35,7.22,1.4,7.42l2.92-.69c-2.12-9-5.72-33.37,3-38.43,4.22-2.46,13.55-1.4,34,17.6a4.63,4.63,0,0,1,1.55,4C203.36,383.18,188.87,396.61,165.29,411.57Zm36.82-3.22c-.18.41-.85,1.86-2,3.94-.19.34-.39.7-.59,1.08-4.85,8.76-16.24,25.91-32.35,28.44-17.83,2.8-34.52-28.18-39.65-38.72L156.63,415a11.19,11.19,0,0,0,10.26-.91c19.2-12.18,29.38-21.2,34.68-27.64C203.86,399.54,202.33,407.35,202.11,408.35Zm-42.07-33c.13,2.42.37,4.76.64,6.91-3.29-.7-9.68.06-22.7,4.91-7.36,2.73-14.52,5.92-18.25,7.64,2.08-10.44,10.73-46.59,31.62-52.63,9.6-2.78,20.65,1.14,33,11.66-7.4-4.11-13.16-4.9-17.4-2.43C161.63,354.54,159.3,362.6,160,375.38Zm44,7.82c2.14-3.22,2.88-5.6,3-7.26a7.5,7.5,0,0,0-1.34-5.21c3.53-2.61,10.65-6.73,15.28-4.58,3.35,1.55,5.25,6.38,5.55,14a4.91,4.91,0,0,0-2.9,1.57c-4.45,4.46-8.71,20.67-8.31,22l1.56-.48,1.37.21c.64-4.22,5.46-20.24,8.67-20.3h0c.32,0,2.93.45,5.66,14.55,1.67,8.59-.5,14.32-6.44,17-8.12,3.71-20.54.67-23.28-1.12,1.3-2.47,2-4.07,2.06-4.21l.08-.22C205.1,408.8,207.35,399.54,204,383.2Zm31.53,13.94c-2-10.51-4.15-14.42-6-15.95q-.18-10.17-3.75-14.85a38.54,38.54,0,0,0,8.59-12.49,134.53,134.53,0,0,0,5.08,22.29c6.52,20.62,1.77,34.45-2.06,39.38-1.2,1.54-2.13,2-2.55,2.05-.16-3.08-.92-4.56-1.32-5.12C235.79,409.14,236.91,404.28,235.53,397.14Zm6.8-21.9a119.35,119.35,0,0,1-5.68-29.38,30.58,30.58,0,0,0,.38-4.68c.06-8.12-2.87-16.27-8.75-24.38l5.43,4.56a30.36,30.36,0,0,1,5.92,7.87c2.82,5,6.39,13.71,7.42,26.62.61,7.62,2.68,11.85,6.35,12.94,5.78,1.72,13-5.84,15.89-9.23,1.45,1.94,3.24,5,2.58,7.16-.4,1.28-1.78,2.2-4.09,2.74a8.15,8.15,0,0,1-5.41-.46c-5-1.89-6.17-.77-16.73,24.78A68.18,68.18,0,0,0,242.33,375.24ZM234,341.12c-.07,12.13-7.73,20.56-10.39,23.12a8.73,8.73,0,0,0-1.42-.82c-6.72-3.11-15.62,2.86-18.63,5.14q-1.84-1.69-3.61-3.22c-14.12-16.17-27.08-25.11-38.7-26.72l1.87,0c.13-9.45,2.22-23.12,11.42-34.57,3.05-3.78,6.5-8.08,12.3-9.57,9.43-2.43,18.75,4.19,24.94,9.38C226.63,316.32,234.11,328.85,234,341.12Zm-73.88-2.63c.37,0,.75.07,1.12.13l-1.12,0v-.11a25.1,25.1,0,0,0-9.64.84c-11.07,3.2-20.21,14-27.17,32A146,146,0,0,0,116.63,395c-3.68-2.05-12-5.52-21.31-1.75.13-3.9-1.44-11.29-7.3-25.95-3.13-7.82-3.12-15.24,0-22,7.44-16.1,30.05-23.86,30.27-23.93l.62-.21.27-.59c.13-.28,13.21-28.35,30.56-30.14,7.44-.78,14.78,3.49,21.81,12.68C162.42,315,160.29,328.81,160.15,338.49ZM92,394.9a.58.58,0,0,1-.1.13.2.2,0,0,1-.11,0h-.06a2.54,2.54,0,0,0-.34.23h0a16,16,0,0,0-1.4.92,10.5,10.5,0,0,0-1.87,1.69l-29.23-33H84a36.49,36.49,0,0,0,1.23,3.55C93.77,389.76,92.46,394.12,92,394.9Zm-.28,3.75c.38-.27.77-.53,1.15-.77l0,0c.32-.21.65-.4,1-.59h0a21.05,21.05,0,0,1,20.75,0l-.59.28,9.44,3.87A147.59,147.59,0,0,0,136.26,424c9.81,14,19.43,21,28.64,21a17.49,17.49,0,0,0,2.79-.22,34.37,34.37,0,0,0,14.06-5.87c1.37,2.09,2.59,3.89,3.68,5.49,6.36,9.36,7.5,11.05,5.21,23.25-.89,4.74-8.06,8.95-19.19,11.25-19.73,4.09-37.39.29-41.51-5.82-8.8-13-25.57-30.3-26.91-31.68C96.3,431.91,81.35,406,91.7,398.65Zm141.65,48.58c11.74-1.07,18.84,1.28,22.76,3.48a15.75,15.75,0,0,1,5.67,5c.15,2.3.82,16.47-5.41,22.76a10.21,10.21,0,0,1-8.59,2.9C233.11,480.21,233.15,453.41,233.35,447.23Zm28.51,3a15.13,15.13,0,0,0-3.18-3c-1.83-1.13-6.76-8.17-10.39-13.77l11.34,1.83,6.35,1h.58c2.77-.07,9.44.42,11.09,3.49,1.19,2.19-.6,5.47-2.3,7.83-3,4.19-5.67,6.37-7.84,6.48S263.59,452.16,261.86,450.21Zm4.15-17-.1,0a22.94,22.94,0,0,1-5.52-.95,12.79,12.79,0,0,1-7.09-4.84c-2.43-3.66-2.34-9,.24-15.75a23.21,23.21,0,0,0,9.43,2.53,10,10,0,0,0,3.68-.65,8.42,8.42,0,0,0,4-3.28c4.5,4.06,6.51,8,6,11.67C275.72,428.24,267.84,432.36,266,433.23Zm3.9-29.78c-.55,4-2,6.46-4.35,7.38-5.73,2.26-16.11-4.45-20.43-7.81h0c.06-.41.12-.83.17-1.25l.26.11c6.36-15.51,10-24.1,12.32-28,1.63-2.75,1.87-2.66,3.43-2.07a11.13,11.13,0,0,0,7.15.57c3.43-.79,5.54-2.4,6.27-4.78,1.51-4.89-3.74-10.77-4.34-11.43l-1.2-1.31-1.09,1.41c-3.34,4.33-10.05,10.76-13.84,9.64-2.28-.67-3.74-4.24-4.22-10.3-1.45-18.26-7.7-28.68-11.48-33.42,3.84-.08,10.46-1.2,21.09-5.69,4.32-1.83,7.93-1.87,10.71-.12,6.35,4,7,15.88,7,16h0c1,23.23,1.52,43.66.76,51.24a3,3,0,0,0-1.74.53C273.6,386,271.41,392.48,269.91,403.45ZM51.5,373.79,84.32,408l.85-.81c.13,7.8,4.42,17.38,8.46,24.71l-9.85,1.49,1.69,2.05c.19.23,19.37,23.94.2,45.39l-.24-.07-3.57,12.11c-1.54-7.07-4.48-17.9-8.54-20.58a4,4,0,0,0-3.2-.63l-.57.15-.32.48c-.07.1-1.6,2.35-4.06,2C62.53,474,57.1,470.49,50.33,451c-2.15-6.21-4.16-7.42-6.28-8.7s-4.49-2.7-8.2-11.31C29.73,416.77,47.14,382.09,51.5,373.79ZM281.39,362c4.67-3.12,8.09-4.09,9.94-2.79,3.71,2.62,2.19,14.47.3,21.62-4.65,4.24-9.69,7.76-11.32,7.92a6.41,6.41,0,0,1,.34-1.92C281.49,384,281.64,374.55,281.39,362ZM30.53,132.65C31.1,105,40.42,81.13,49,68c21.94-33.8,61.78-54,106.56-54,32.54,0,63.62,10.14,87.53,28.55C265.43,59.8,279.58,83,281.86,106.22l0,.23c0,.12,2.58,10.62.06,46.77-11.36-5.78-42.59-9-51.74-9.81A75.17,75.17,0,0,0,242,103.2c0-20.87-9.3-40.17-26.2-54.33-16.37-13.7-38-21.25-60.89-21.25-21.63,0-42.56,9-59,25.39C80.53,68.36,71.33,88,70.66,107c-.52,14.64,4,29.15,13.47,43.12.43.63.87,1.26,1.31,1.88-6.29-.22-21.43,1.11-53.77,12C30.82,147.58,30.4,139.12,30.53,132.65ZM13,296.45a.49.49,0,0,1,0-.12c2.62-31.76,8.42-61.47,21.1-87.26,3.53-1.18,22.3-7.37,44.25-13,.58,27.59-21.14,31.7-22.09,31.87l.5,3a30.59,30.59,0,0,0,10.47-4.55c2.52,11.09,1.5,20.13-3,26.9-6.46,9.66-18,11.38-18.16,11.4l.41,3a30,30,0,0,0,6.95-2c-.88,4.22-2.52,12.32-3.85,20.56-3.08,19.06-2.37,24.89-.89,27-2.93,15.33-3.41,26.47-1.43,33.28-1.72,1.85-7.57,7.45-14.38,6.1-7.81-1.55-14.78-11.87-20.13-29.85C12.43,313.69,12.51,304.92,13,296.45ZM28.92,487.88c-7.18-33-18-82.94-18-123.55,0-7.44,0-14.85.13-22.2a385.56,385.56,0,0,0,18.69,87.64c16.52,48.07,40.22,82,66.72,95.58,1.81.92,31.59,15.84,69.63,15.84a128.19,128.19,0,0,0,57.18-12.94c37.95-18.73,62.8-54.12,73.81-104.24-4.47,36.19-12.7,72.8-23.79,104.62-38.67,35.6-79.52,52.55-121.43,50.36C86.5,575.57,39.69,526.07,35.42,521.4,34.74,514.68,32.16,502.81,28.92,487.88Zm257.77,83.67c0,45.87-65.88,66.4-131.18,66.4-35.68,0-68.23-6.14-91.63-17.29C38.45,608.54,25,591.23,25,570.6c0-10.84,7.3-37.31,9.68-45.6,9.51,9.89,55,53.74,117,57q3.71.19,7.39.19c39.82,0,78.57-16.95,115.31-50.47C281.45,541.84,286.69,558.61,286.69,571.55Z"/><path class="cls-1" d="M262.37,186.23v.1l-.09-.1Z"/><path class="cls-1" d="M155.77,140.6a2,2,0,1,1,2-2A2,2,0,0,1,155.77,140.6Zm0-3a1,1,0,1,0,1,1A1,1,0,0,0,155.77,137.6Z"/><path class="cls-1" d="M168.77,139.57a2,2,0,1,1,2-2A2,2,0,0,1,168.77,139.57Zm0-3a1,1,0,1,0,0,2,1,1,0,0,0,0-2Z"/><path class="cls-1" d="M262.37,186.23v.1l-.09-.1Z"/><path class="cls-1" d="M262.29,269.29c-1-7.52-1.31-12.25-1.41-15.22a16.26,16.26,0,0,0,1.48-5.4l.06-.53-.3-.45a2.1,2.1,0,0,0-2.47-1c-.88.33-1.91.71-1.8,6.68-.11.2-.23.4-.35.59-6-23.4-8.64-23.32-9.8-23.28-1.87.06-2.29,2.36-2.42,3.12-1.24,6.89-10.2,11.65-14.46,13.54a105,105,0,0,0,0-15.49l0-.75-.62-.41c-.12-.08-12-8-12.71-21.47a13,13,0,0,0,1.82-10.06c-1.89-8.19-11.11-13.72-11.5-13.95-.58-.34-14.39-8.21-48.37,4.16-3.89-.41-34.41-3.24-46.16,9.41-4,4.34-5.41,10-4.1,16.76,1.14,5.92,3.71,9.39,7.64,10.33a8.88,8.88,0,0,0,2.16.25c2.66,0,5.79-1,9.36-3a30,30,0,0,0,5.72.53c10,0,23.46-4.58,28.66-22a91.25,91.25,0,0,0,10.81,9.94c8.46,6.54,16.51,9.73,23.76,9.52-3.2,3.47-6.13,9.74-8.75,18.75-2.57,8.84-.82,18.89,5.06,29.06a62.56,62.56,0,0,0,9.67,12.72l.88.86,1-.7a97.74,97.74,0,0,0,10.38-8.71l.79,9.07,1.46-.1c1.52-.09,12.23-.87,18.87-3.81-6.26,13.67-14.91,15.86-15,15.89l-12.12,2.66,12.4.3h.82a79,79,0,0,0,8-.45v10.16l1,.37c.72.27,13.29,5,24.36,5,4.13,0,8.05-.66,11.06-2.45a11.56,11.56,0,0,0,5.64-8.85A38.17,38.17,0,0,0,262.29,269.29ZM126.52,194.58c7-2.16,15.2-2.7,21.67-2.7,3.5,0,6.49.15,8.5.3a190.45,190.45,0,0,1-18.21,19.47c-5.65-.24-9.51-1.89-11.47-4.89C124.23,202.51,125.87,196.51,126.52,194.58Zm-9,28.41c-2.68-.65-4.5-3.33-5.4-8-1.13-5.87,0-10.5,3.35-14.15a21.76,21.76,0,0,1,7.59-5c-.75,3.21-1.28,8.38,1.45,12.56,2.13,3.26,5.78,5.27,10.89,6C128.61,220.08,122,224.06,117.5,223Zm14.83-2.44A100.55,100.55,0,0,0,144.59,210c5.31-5.24,10-10.68,13-14.21.66.83,1.59,1.95,2.74,3.27C155.27,219.21,139.72,220.93,132.33,220.55Zm44.41-10.28c.89.07,1.84.12,2.83.12,4.4,0,9.57-.91,13.23-4.37,4.4-4.16,5.63-11,3.66-20.32l-2.94.62c1.75,8.23.81,14.12-2.77,17.51-5.67,5.37-16.53,3.18-18.73,2.67h0a99.76,99.76,0,0,1-12.46-13.1l1-1.2c32.37-11.77,45.61-4.46,45.74-4.38s8.52,5.13,10.11,12.06a9.7,9.7,0,0,1-.93,6.89c-1.06.1-1.95,1.25-3.47,3.2a23.78,23.78,0,0,1-4.49,4.85C197.35,221.61,186,217,176.74,210.27Zm27.72,68.36a62.68,62.68,0,0,1-8.32-11.23c-3.79-6.57-7.68-16.52-4.74-26.65,4.15-14.3,8.2-18.23,10.24-19.3a3.26,3.26,0,0,1,1.44-.41.83.83,0,0,1,.34.05l.46-1.13a22.66,22.66,0,0,0,5.27-2.65,25.7,25.7,0,0,0,5.19-5.5c.1-.12.21-.26.31-.4,1.58,12.06,10.72,19.52,13.25,21.37,1.49,25.71-4.94,28.63-4.93,28.63l-.42.12-.29.33A127.21,127.21,0,0,1,204.46,278.63ZM219,279l-.74-8.57c1.88-1.88,3.9-4,6-6.34,1.34-.68,4.68-3.33,6.14-13.3,3.39-1.34,15.69-6.78,17.71-16,1.79,3.48,4.76,13.15,7,21.95a16.48,16.48,0,0,1-4.31,2.66,25.27,25.27,0,0,1-8,1.93l-1.2,0-.22,1.19a71.73,71.73,0,0,1-2.79,10.92h0C236.12,276.55,225.92,278.41,219,279Zm9.53,14.87c5.18-3.88,12.17-12.18,15.53-29.64,2.73-.33,9.47-1.58,14-6.2.23,3.1.64,7.06,1.29,12.16.69,5.43-.62,10-3.9,13.67C249,291,236.34,293.22,228.57,293.88Zm41.24,6.66a8.57,8.57,0,0,1-4.2,6.67c-8.68,5.16-27.4-.87-31.86-2.43v-8.45c8-1.16,18.06-3.92,24-10.45a18.44,18.44,0,0,0,4.82-11.72A35.4,35.4,0,0,1,269.81,300.54Z"/><path class="cls-1" d="M196.26,288.83l-3.34-1.76c-5.21-2.74-31.18-16.84-30.37-24.95.14-1.4,1-3.27,4.52-4.3,16.71-4.91,27.52,26.12,28,27.44ZM170.61,260.3a9.43,9.43,0,0,0-2.69.4c-1,.31-2.3.85-2.39,1.71-.4,4.07,13.5,13.53,25.2,20.06C187.7,275.28,180.22,260.3,170.61,260.3Z"/><path class="cls-1" d="M130.28,249.57a10.18,10.18,0,1,1,10.17-10.17A10.19,10.19,0,0,1,130.28,249.57Zm0-17.35a7.18,7.18,0,1,0,7.17,7.18A7.19,7.19,0,0,0,130.28,232.22Z"/><path class="cls-1" d="M148.09,265.55a9.95,9.95,0,1,1,9.94-9.94A10,10,0,0,1,148.09,265.55Zm0-16.89a6.95,6.95,0,1,0,6.94,7A7,7,0,0,0,148.09,248.66Z"/><path class="cls-1" d="M139,285.51a10.27,10.27,0,1,1,10.26-10.27A10.28,10.28,0,0,1,139,285.51ZM139,268a7.27,7.27,0,1,0,7.26,7.26A7.27,7.27,0,0,0,139,268Z"/><path class="cls-1" d="M117.72,284.29a9,9,0,1,1,9-9.05A9.06,9.06,0,0,1,117.72,284.29Zm0-15.09a6,6,0,1,0,6,6A6,6,0,0,0,117.72,269.2Z"/><path class="cls-1" d="M113.15,265.55a9.95,9.95,0,1,1,9.95-9.94A10,10,0,0,1,113.15,265.55Zm0-16.89a6.95,6.95,0,1,0,6.95,7A7,7,0,0,0,113.15,248.66Z"/><path class="cls-1" d="M159.69,237.89l-.09,1.59v-1.59a1.73,1.73,0,0,0-1.7,1.18c-.38,1.23-.85,2.76,28,22.47l.12.32,2.82-1C181,239.29,159.9,237.91,159.69,237.89Zm3.64,3.61a31,31,0,0,1,20,14.66C175.23,250.51,167.32,244.76,163.33,241.5Z"/><path class="cls-1" d="M161.27,338.62l-1.12,0v-.11C160.52,338.52,160.9,338.56,161.27,338.62Z"/><path class="cls-1" d="M200.16,412.29c-.19.34-.39.7-.59,1.08A2,2,0,0,1,200.16,412.29Z"/><path class="cls-1" d="M92,394.9a.58.58,0,0,1-.1.13.2.2,0,0,1-.11,0h0Z"/><path class="cls-1" d="M161.27,338.62l-1.12,0v-.11C160.52,338.52,160.9,338.56,161.27,338.62Z"/><path class="cls-1" d="M91.71,395.05a2.54,2.54,0,0,0-.34.23l.13-.27Z"/><path class="cls-1" d="M93.86,397.27a2.94,2.94,0,0,1-1,.59C93.21,397.65,93.54,397.46,93.86,397.27Z"/><path class="cls-1" d="M266,436.28a24.86,24.86,0,0,1-6.4-1l6.35,1Z"/><path class="cls-1" d="M266.56,436.27h0Z"/><path class="cls-1" d="M260.39,432.33a22.94,22.94,0,0,0,5.52.95l.1,0Zm5.64,3.95h0Z"/><path class="cls-1" d="M214.57,459.21q-.16.17-.33.3l.3-.33Z"/><path class="cls-1" d="M130,500.51a4.57,4.57,0,0,1-1-.11,3.8,3.8,0,0,1-2.52-5.54c2.69-4.86,17.46-7,20.4-7.43l4.94-.65L148,490.05C145.92,491.88,135.69,500.51,130,500.51Zm11.62-9.13c-5.65,1.17-11.45,3-12.52,4.93a.7.7,0,0,0,0,.71.69.69,0,0,0,.56.45C131.76,498,137,494.82,141.58,491.38Z"/><path class="cls-1" d="M117.72,488.83c-3.86,0-7-.41-8.34-1.57a2.64,2.64,0,0,1-.91-2.12,2.75,2.75,0,0,1,1.09-2c4.22-3.37,25.06-.07,29.19.62l8.88,1.5-8.88,1.46A148,148,0,0,1,117.72,488.83Zm-6-3.58c1.72.82,7.87.76,15.63,0C119.55,484.41,113.39,484.38,111.72,485.25Z"/><path class="cls-1" d="M152.77,517.63a8.9,8.9,0,1,1,8.9-8.89A8.9,8.9,0,0,1,152.77,517.63Zm0-14.79a5.9,5.9,0,1,0,5.9,5.9A5.9,5.9,0,0,0,152.77,502.84Z"/><path class="cls-1" d="M167.83,532.37a9.16,9.16,0,1,1,9.16-9.16A9.17,9.17,0,0,1,167.83,532.37Zm0-15.32a6.16,6.16,0,1,0,6.16,6.16A6.16,6.16,0,0,0,167.83,517.05Z"/><path class="cls-1" d="M187.65,518a8,8,0,1,1,8-8A8,8,0,0,1,187.65,518Zm0-12.94a5,5,0,1,0,5,5A5,5,0,0,0,187.65,505.09Z"/><path class="cls-1" d="M184,499.93a8.11,8.11,0,1,1,8.1-8.1A8.11,8.11,0,0,1,184,499.93Zm0-13.21a5.11,5.11,0,1,0,5.1,5.11A5.11,5.11,0,0,0,184,486.72Z"/><path class="cls-1" d="M161.64,498a7.24,7.24,0,1,1,7.24-7.24A7.24,7.24,0,0,1,161.64,498Zm0-11.48a4.24,4.24,0,1,0,4.24,4.24A4.24,4.24,0,0,0,161.64,486.53Z"/><path class="cls-1" d="M178.23,154.65c0,.41-3.91,1-5.61,2.54,0,0-6,7.22-10.53,7.22-3.93,0-6.19-4.83-9.11-7.15-2.51-2-6.82-1.94-7.32-1.94s6.81-2.32,13.05-5.12c2.07-.93,2.58,1.35,4.83,1.35,2.69,0,4.42-2.64,6-1C171.75,153,178.23,154,178.23,154.65Z"/></svg>